<svg width="46" height="46" viewBox="0 0 46 46" fill="none" xmlns="http://www.w3.org/2000/svg">
<path d="M14.255 12.2617C20.471 12.2617 25.5101 17.3009 25.5101 23.5168C25.5101 29.7327 20.471 34.7718 14.255 34.7718C8.03911 34.7718 3 29.7327 3 23.5168C3 17.3009 8.03911 12.2617 14.255 12.2617ZM11.7747 19.5644C11.3633 19.2284 10.7571 19.2524 10.3739 19.6356C9.99069 20.0188 9.9666 20.625 10.3027 21.0365L10.3739 21.1161L12.7746 23.5168L10.3749 25.9175C9.9666 26.3269 9.96556 26.9896 10.3749 27.3979C10.7832 27.8063 11.447 27.8063 11.8554 27.3979L14.255 24.9972L16.6547 27.3979L16.7343 27.4691C17.1457 27.8052 17.7519 27.7811 18.1351 27.3979C18.5183 27.0147 18.5424 26.4085 18.2074 25.9971L18.1351 25.9175L15.7344 23.5168L18.1362 21.1161L18.2074 21.0365C18.5435 20.625 18.5194 20.0188 18.1362 19.6356C17.753 19.2524 17.1468 19.2284 16.7353 19.5644L16.6558 19.6356L14.255 22.0364L11.8543 19.6356L11.7747 19.5644Z" fill="#FC272F"/>
<path fill-rule="evenodd" clip-rule="evenodd" d="M19.4899 23.255C19.4899 29.471 24.529 34.5101 30.745 34.5101C36.9609 34.5101 42 29.471 42 23.255C42 17.0391 36.9609 12 30.745 12C24.529 12 19.4899 17.0391 19.4899 23.255ZM35.6406 19.3425C36.0668 19.733 36.095 20.3957 35.7045 20.8219L29.9461 27.1037C29.7535 27.3142 29.4823 27.4367 29.1975 27.443C28.9117 27.4492 28.6363 27.3383 28.4343 27.1362L25.8168 24.5187C25.4075 24.1104 25.4075 23.4466 25.8168 23.0383C26.2252 22.6289 26.8889 22.6289 27.2973 23.0383L29.142 24.882L34.1613 19.4063C34.5518 18.9802 35.2145 18.9519 35.6406 19.3425Z" fill="#27C840"/>
</svg>
